<?xml version="1.0" standalone="no"?><!DOCTYPE svg PUBLIC "-//W3C//DTD SVG 1.1//EN" "http://www.w3.org/Graphics/SVG/1.1/DTD/svg11.dtd"><svg class="icon" width="200px" height="200.00px" viewBox="0 0 1024 1024" version="1.1" xmlns="http://www.w3.org/2000/svg"><path d="M896 256a85.333333 85.333333 0 0 0-85.333333-85.333333h-42.666667V106.666667a21.333333 21.333333 0 0 0-21.333333-21.333334h-42.666667a21.333333 21.333333 0 0 0-21.333333 21.333334V170.666667H341.333333V106.666667a21.333333 21.333333 0 0 0-21.333333-21.333334h-42.666667a21.333333 21.333333 0 0 0-21.333333 21.333334V170.666667H213.333333a85.333333 85.333333 0 0 0-85.333333 85.333333v554.666667a85.333333 85.333333 0 0 0 85.333333 85.333333h597.333334a85.333333 85.333333 0 0 0 85.333333-85.333333z m-85.333333 554.666667H213.333333V341.333333h597.333334z m-170.666667-239.786667v-32.426667a21.333333 21.333333 0 0 0-21.333333-21.333333h-69.12V448a21.333333 21.333333 0 0 0-21.333334-21.333333h-32.426666a21.333333 21.333333 0 0 0-21.333334 21.333333v69.12H405.333333a21.333333 21.333333 0 0 0-21.333333 21.333333v32.426667a21.333333 21.333333 0 0 0 21.333333 21.333333h69.12v69.12a21.333333 21.333333 0 0 0 21.333334 21.333334h32.426666a21.333333 21.333333 0 0 0 21.333334-21.333334v-69.12h69.12a21.333333 21.333333 0 0 0 21.333333-21.333333z" /></svg>