<?xml version="1.0" standalone="no"?><!DOCTYPE svg PUBLIC "-//W3C//DTD SVG 1.1//EN" "http://www.w3.org/Graphics/SVG/1.1/DTD/svg11.dtd"><svg class="icon" width="200px" height="200.00px" viewBox="0 0 1024 1024" version="1.1" xmlns="http://www.w3.org/2000/svg"><path d="M896 256a85.333333 85.333333 0 0 0-85.333333-85.333333h-42.666667V106.666667a21.333333 21.333333 0 0 0-21.333333-21.333334h-42.666667a21.333333 21.333333 0 0 0-21.333333 21.333334V170.666667H341.333333V106.666667a21.333333 21.333333 0 0 0-21.333333-21.333334h-42.666667a21.333333 21.333333 0 0 0-21.333333 21.333334V170.666667H213.333333a85.333333 85.333333 0 0 0-85.333333 85.333333v554.666667a85.333333 85.333333 0 0 0 85.333333 85.333333h597.333334a85.333333 85.333333 0 0 0 85.333333-85.333333z m-85.333333 554.666667H213.333333V341.333333h597.333334z m-245.76-256l68.693333-69.12a20.48 20.48 0 0 0 0-29.866667l-22.613333-22.613333a20.48 20.48 0 0 0-29.866667 0L512 501.76l-69.12-68.693333a20.48 20.48 0 0 0-29.866667 0l-22.613333 22.613333a20.48 20.48 0 0 0 0 29.866667L459.093333 554.666667l-68.693333 69.12a20.48 20.48 0 0 0 0 29.866666l22.613333 22.613334a20.48 20.48 0 0 0 29.866667 0L512 607.573333l69.12 68.693334a20.48 20.48 0 0 0 29.866667 0l22.613333-22.613334a20.48 20.48 0 0 0 0-29.866666z" /></svg>