<?xml version="1.0" standalone="no"?><!DOCTYPE svg PUBLIC "-//W3C//DTD SVG 1.1//EN" "http://www.w3.org/Graphics/SVG/1.1/DTD/svg11.dtd"><svg class="icon" width="200px" height="200.00px" viewBox="0 0 1024 1024" version="1.1" xmlns="http://www.w3.org/2000/svg"><path d="M810.666667 170.666667h-42.666667V106.666667a21.333333 21.333333 0 0 0-21.333333-21.333334h-42.666667a21.333333 21.333333 0 0 0-21.333333 21.333334V170.666667H341.333333V106.666667a21.333333 21.333333 0 0 0-21.333333-21.333334h-42.666667a21.333333 21.333333 0 0 0-21.333333 21.333334V170.666667H213.333333a85.333333 85.333333 0 0 0-85.333333 85.333333v554.666667a85.333333 85.333333 0 0 0 85.333333 85.333333h597.333334a85.333333 85.333333 0 0 0 85.333333-85.333333V256a85.333333 85.333333 0 0 0-85.333333-85.333333z m0 640H213.333333V341.333333h597.333334z m-358.826667-134.4a20.48 20.48 0 0 0 29.866667 0l181.333333-180.906667a21.76 21.76 0 0 0 0-30.293333l-23.04-22.613334a21.76 21.76 0 0 0-30.293333 0l-143.36 143.36-52.48-52.906666a21.76 21.76 0 0 0-30.293334 0l-22.613333 21.76a21.333333 21.333333 0 0 0 0 29.866666z" /></svg>