<?xml version="1.0" standalone="no"?><!DOCTYPE svg PUBLIC "-//W3C//DTD SVG 1.1//EN" "http://www.w3.org/Graphics/SVG/1.1/DTD/svg11.dtd"><svg class="icon" width="200px" height="200.00px" viewBox="0 0 1024 1024" version="1.1" xmlns="http://www.w3.org/2000/svg"><path d="M896 170.666667H440.746667a85.333333 85.333333 0 0 0-60.586667 25.173333l-282.453333 282.453333a42.666667 42.666667 0 0 0-12.373334 29.866667v7.68a42.666667 42.666667 0 0 0 12.373334 29.866667l282.453333 282.453333a85.333333 85.333333 0 0 0 60.586667 25.173333H896a42.666667 42.666667 0 0 0 42.666667-42.666666V213.333333a42.666667 42.666667 0 0 0-42.666667-42.666666z m-42.666667 597.333333h-412.586666l-256-256 256-256H853.333333z m-387.84-146.773333l22.613334 22.613333a20.48 20.48 0 0 0 29.866666 0L597.333333 564.906667l79.36 78.933333a20.48 20.48 0 0 0 29.866667 0l22.613333-22.613333a20.48 20.48 0 0 0 0-29.866667L650.24 512l78.933333-79.36a20.48 20.48 0 0 0 0-29.866667l-22.613333-22.613333a20.48 20.48 0 0 0-29.866667 0L597.333333 459.093333l-79.36-78.933333a20.48 20.48 0 0 0-29.866666 0l-22.613334 22.613333a20.48 20.48 0 0 0 0 29.866667L544.426667 512l-78.933334 79.36a20.48 20.48 0 0 0 0 29.866667z" /></svg>