<?xml version="1.0" standalone="no"?><!DOCTYPE svg PUBLIC "-//W3C//DTD SVG 1.1//EN" "http://www.w3.org/Graphics/SVG/1.1/DTD/svg11.dtd"><svg class="icon" width="200px" height="200.00px" viewBox="0 0 1024 1024" version="1.1" xmlns="http://www.w3.org/2000/svg"><path d="M512 85.333333a426.666667 426.666667 0 1 0 426.666667 426.666667A426.666667 426.666667 0 0 0 512 85.333333z m341.333333 426.666667a337.92 337.92 0 0 1-72.106666 209.066667L302.933333 242.773333A337.92 337.92 0 0 1 512 170.666667a341.333333 341.333333 0 0 1 341.333333 341.333333zM170.666667 512a337.92 337.92 0 0 1 72.106666-209.066667L721.066667 781.226667A337.92 337.92 0 0 1 512 853.333333a341.333333 341.333333 0 0 1-341.333333-341.333333z" /></svg>