<?xml version="1.0" standalone="no"?><!DOCTYPE svg PUBLIC "-//W3C//DTD SVG 1.1//EN" "http://www.w3.org/Graphics/SVG/1.1/DTD/svg11.dtd"><svg class="icon" width="200px" height="200.00px" viewBox="0 0 1024 1024" version="1.1" xmlns="http://www.w3.org/2000/svg"><path d="M974.933333 497.066667l-8.533333 8.533333a20.906667 20.906667 0 0 1-15.36 6.4H853.333333a341.333333 341.333333 0 0 1-512 295.253333 22.186667 22.186667 0 0 1-10.24-15.786666 21.333333 21.333333 0 0 1 5.973334-17.92l31.146666-31.146667a21.333333 21.333333 0 0 1 25.173334-3.84A253.44 253.44 0 0 0 512 768a256 256 0 0 0 256-256h-100.693333a20.906667 20.906667 0 0 1-15.36-6.4l-8.533334-8.533333a21.333333 21.333333 0 0 1 0-30.293334l150.613334-151.04a21.76 21.76 0 0 1 30.293333 0l150.613333 151.04a21.333333 21.333333 0 0 1 0 30.293334z m-594.346666 29.866666l-8.533334-8.533333a20.906667 20.906667 0 0 0-15.36-6.4H256a256 256 0 0 1 256-256 248.746667 248.746667 0 0 1 119.04 29.866667 21.76 21.76 0 0 0 25.173333-3.84l31.573334-31.573334a21.333333 21.333333 0 0 0 5.973333-17.92 22.186667 22.186667 0 0 0-11.093333-15.786666A341.333333 341.333333 0 0 0 170.666667 512H72.96a20.906667 20.906667 0 0 0-15.36 6.4l-8.533333 8.533333a21.333333 21.333333 0 0 0 0 30.293334l150.613333 151.04a21.76 21.76 0 0 0 30.293333 0l150.613334-151.04a21.333333 21.333333 0 0 0 0-30.293334z" /></svg>