<?xml version="1.0" standalone="no"?><!DOCTYPE svg PUBLIC "-//W3C//DTD SVG 1.1//EN" "http://www.w3.org/Graphics/SVG/1.1/DTD/svg11.dtd"><svg class="icon" width="200px" height="200.00px" viewBox="0 0 1024 1024" version="1.1" xmlns="http://www.w3.org/2000/svg"><path d="M761.6 701.44a21.333333 21.333333 0 0 1 0 30.293333l-29.866667 29.866667a21.333333 21.333333 0 0 1-30.293333 0L512 572.16l-189.44 189.44a21.333333 21.333333 0 0 1-30.293333 0l-29.866667-29.866667a21.333333 21.333333 0 0 1 0-30.293333L451.84 512 262.4 322.56a21.333333 21.333333 0 0 1 0-30.293333l29.866667-29.866667a21.333333 21.333333 0 0 1 30.293333 0L512 451.84l189.44-189.44a21.333333 21.333333 0 0 1 30.293333 0l29.866667 29.866667a21.333333 21.333333 0 0 1 0 30.293333L572.16 512z" /></svg>