<?xml version="1.0" standalone="no"?><!DOCTYPE svg PUBLIC "-//W3C//DTD SVG 1.1//EN" "http://www.w3.org/Graphics/SVG/1.1/DTD/svg11.dtd"><svg class="icon" width="64px" height="64.00px" viewBox="0 0 1024 1024" version="1.1" xmlns="http://www.w3.org/2000/svg"><path d="M688.64 381.44a21.333333 21.333333 0 0 1 0 30.293333l-8.533333 8.533334a20.906667 20.906667 0 0 1-15.36 6.4H359.253333a20.906667 20.906667 0 0 1-15.36-6.4l-8.533333-8.533334a21.333333 21.333333 0 0 1 0-30.293333l161.706667-161.706667a20.48 20.48 0 0 1 29.866666 0z m-353.28 261.12a21.333333 21.333333 0 0 1 0-30.293333l8.533333-8.533334a20.906667 20.906667 0 0 1 15.36-6.4h305.493334a20.906667 20.906667 0 0 1 15.36 6.4l8.533333 8.533334a21.333333 21.333333 0 0 1 0 30.293333l-161.706667 161.706667a20.48 20.48 0 0 1-29.866666 0z" /></svg>