<?xml version="1.0" standalone="no"?><!DOCTYPE svg PUBLIC "-//W3C//DTD SVG 1.1//EN" "http://www.w3.org/Graphics/SVG/1.1/DTD/svg11.dtd"><svg class="icon" width="200px" height="200.00px" viewBox="0 0 1024 1024" version="1.1" xmlns="http://www.w3.org/2000/svg"><path d="M810.666667 789.333333v42.666667a21.333333 21.333333 0 0 1-21.333334 21.333333h-554.666666a21.333333 21.333333 0 0 1-21.333334-21.333333v-42.666667a21.333333 21.333333 0 0 1 21.333334-21.333333h554.666666a21.333333 21.333333 0 0 1 21.333334 21.333333z m-313.6-113.066666a20.48 20.48 0 0 0 29.866666 0l247.04-247.04a21.333333 21.333333 0 0 0 0-30.293334l-8.533333-8.533333a20.906667 20.906667 0 0 0-15.36-6.4H640V149.333333a21.333333 21.333333 0 0 0-21.333333-21.333333h-213.333334a21.333333 21.333333 0 0 0-21.333333 21.333333V384H273.92a20.906667 20.906667 0 0 0-15.36 6.4l-8.533333 8.533333a21.333333 21.333333 0 0 0 0 30.293334z" /></svg>