<?xml version="1.0" standalone="no"?><!DOCTYPE svg PUBLIC "-//W3C//DTD SVG 1.1//EN" "http://www.w3.org/Graphics/SVG/1.1/DTD/svg11.dtd"><svg class="icon" width="200px" height="200.00px" viewBox="0 0 1024 1024" version="1.1" xmlns="http://www.w3.org/2000/svg"><path d="M426.666667 590.08a85.333333 85.333333 0 0 0-25.173334-60.586667L153.173333 281.173333A85.333333 85.333333 0 0 1 128 220.586667V170.666667a42.666667 42.666667 0 0 1 42.666667-42.666667h682.666666a42.666667 42.666667 0 0 1 42.666667 42.666667v49.92a85.333333 85.333333 0 0 1-25.173333 60.586666l-248.32 248.32a85.333333 85.333333 0 0 0-25.173334 60.586667v156.586667a85.333333 85.333333 0 0 1-34.133333 68.266666l-102.4 76.8a21.333333 21.333333 0 0 1-34.133333-17.066666z" /></svg>