<?xml version="1.0" standalone="no"?><!DOCTYPE svg PUBLIC "-//W3C//DTD SVG 1.1//EN" "http://www.w3.org/Graphics/SVG/1.1/DTD/svg11.dtd"><svg class="icon" width="200px" height="200.00px" viewBox="0 0 1024 1024" version="1.1" xmlns="http://www.w3.org/2000/svg"><path d="M512 213.333333V115.626667a20.906667 20.906667 0 0 1 6.4-15.36l8.533333-8.533334a21.333333 21.333333 0 0 1 30.293334 0l151.04 150.613334a21.76 21.76 0 0 1 0 30.293333l-151.04 150.613333a21.333333 21.333333 0 0 1-30.293334 0l-8.533333-8.533333a20.906667 20.906667 0 0 1-6.4-15.36V298.666667a256 256 0 1 0 256 275.626666 21.333333 21.333333 0 0 1 21.333333-19.626666h42.666667a22.186667 22.186667 0 0 1 15.786667 6.826666 21.76 21.76 0 0 1 5.546666 15.786667A341.333333 341.333333 0 1 1 512 213.333333z" /></svg>