<?xml version="1.0" standalone="no"?><!DOCTYPE svg PUBLIC "-//W3C//DTD SVG 1.1//EN" "http://www.w3.org/Graphics/SVG/1.1/DTD/svg11.dtd"><svg class="icon" width="200px" height="200.00px" viewBox="0 0 1024 1024" version="1.1" xmlns="http://www.w3.org/2000/svg"><path d="M883.626667 145.493333l-5.12-5.12a44.8 44.8 0 0 0-30.293334-12.373333h-339.2a85.333333 85.333333 0 0 0-60.586666 25.173333l-308.053334 308.053334a42.666667 42.666667 0 0 0 0 60.16l362.24 362.24a42.666667 42.666667 0 0 0 60.16 0l308.053334-308.053334a85.333333 85.333333 0 0 0 25.173333-60.586666V175.786667a44.8 44.8 0 0 0-12.373333-30.293334zM810.666667 514.986667l-277.76 278.186666-302.08-302.08L509.013333 213.333333H810.666667zM640 469.333333a85.333333 85.333333 0 1 0-85.333333-85.333333 85.333333 85.333333 0 0 0 85.333333 85.333333z" /></svg>