<?xml version="1.0" standalone="no"?><!DOCTYPE svg PUBLIC "-//W3C//DTD SVG 1.1//EN" "http://www.w3.org/Graphics/SVG/1.1/DTD/svg11.dtd"><svg class="icon" width="200px" height="200.00px" viewBox="0 0 1024 1024" version="1.1" xmlns="http://www.w3.org/2000/svg"><path d="M889.6 837.12a20.48 20.48 0 0 1 0 29.866667l-22.613333 22.613333a20.48 20.48 0 0 1-29.866667 0l-140.373333-139.946667-133.973334 133.973334a42.666667 42.666667 0 0 1-60.16 0l-362.24-362.24a42.666667 42.666667 0 0 1 0-60.16l133.973334-133.973334-139.946667-140.373333a20.48 20.48 0 0 1 0-29.866667l22.613333-22.613333a20.48 20.48 0 0 1 29.866667 0z m-5.973333-691.626667l-5.12-5.12a44.8 44.8 0 0 0-30.293334-12.373333h-339.2a85.333333 85.333333 0 0 0-60.586666 25.173333l-68.266667 68.266667 422.4 422.4 68.266667-68.266667a85.333333 85.333333 0 0 0 25.173333-60.586666V175.786667a44.8 44.8 0 0 0-12.373333-30.293334z" /></svg>