<?xml version="1.0" standalone="no"?><!DOCTYPE svg PUBLIC "-//W3C//DTD SVG 1.1//EN" "http://www.w3.org/Graphics/SVG/1.1/DTD/svg11.dtd"><svg class="icon" width="200px" height="200.00px" viewBox="0 0 1024 1024" version="1.1" xmlns="http://www.w3.org/2000/svg"><path d="M725.333333 170.666667v301.653333l-277.76 278.186667-302.08-302.08L423.68 170.666667H725.333333m37.546667-85.333334H423.68a85.333333 85.333333 0 0 0-60.586667 25.173334L55.04 418.56a42.666667 42.666667 0 0 0 0 60.16l362.24 362.24a42.666667 42.666667 0 0 0 60.16 0l308.053333-308.053333a85.333333 85.333333 0 0 0 25.173334-60.586667V133.12a44.8 44.8 0 0 0-12.373334-30.293333l-5.12-5.12a44.8 44.8 0 0 0-30.293333-12.373334zM640 341.333333a85.333333 85.333333 0 1 0-85.333333 85.333334 85.333333 85.333333 0 0 0 85.333333-85.333334z m328.96-67.84l-5.12-5.12a44.8 44.8 0 0 0-30.293333-12.373333H896v251.733333a85.333333 85.333333 0 0 1-25.173333 60.586667l-323.413334 322.986667 37.973334 37.973333a32 32 0 0 0 45.226666 0l298.666667-298.666667A170.666667 170.666667 0 0 0 981.333333 507.733333V303.786667a44.8 44.8 0 0 0-12.373333-30.293334z" /></svg>