<?xml version="1.0" standalone="no"?><!DOCTYPE svg PUBLIC "-//W3C//DTD SVG 1.1//EN" "http://www.w3.org/Graphics/SVG/1.1/DTD/svg11.dtd"><svg class="icon" width="200px" height="200.00px" viewBox="0 0 1024 1024" version="1.1" xmlns="http://www.w3.org/2000/svg"><path d="M917.333333 469.333333h-66.986666A341.333333 341.333333 0 0 0 554.666667 173.653333V106.666667a21.333333 21.333333 0 0 0-21.333334-21.333334h-42.666666a21.333333 21.333333 0 0 0-21.333334 21.333334v66.986666A341.333333 341.333333 0 0 0 173.653333 469.333333H106.666667a21.333333 21.333333 0 0 0-21.333334 21.333334v42.666666a21.333333 21.333333 0 0 0 21.333334 21.333334h66.986666A341.333333 341.333333 0 0 0 469.333333 850.346667v66.986666a21.333333 21.333333 0 0 0 21.333334 21.333334h42.666666a21.333333 21.333333 0 0 0 21.333334-21.333334v-66.986666A341.333333 341.333333 0 0 0 850.346667 554.666667h66.986666a21.333333 21.333333 0 0 0 21.333334-21.333334v-42.666666a21.333333 21.333333 0 0 0-21.333334-21.333334zM512 768a256 256 0 1 1 256-256 256 256 0 0 1-256 256z m0-341.333333a85.333333 85.333333 0 1 0 85.333333 85.333333 85.333333 85.333333 0 0 0-85.333333-85.333333z" /></svg>