<?xml version="1.0" standalone="no"?><!DOCTYPE svg PUBLIC "-//W3C//DTD SVG 1.1//EN" "http://www.w3.org/Graphics/SVG/1.1/DTD/svg11.dtd"><svg class="icon" width="200px" height="200.00px" viewBox="0 0 1024 1024" version="1.1" xmlns="http://www.w3.org/2000/svg"><path d="M805.546667 634.88a128 128 0 0 1-37.546667-90.453333V426.666667a256 256 0 0 0-51.2-153.6l-38.4-51.2A128 128 0 0 0 576 170.666667H554.666667V106.666667a21.333333 21.333333 0 0 0-21.333334-21.333334h-42.666666a21.333333 21.333333 0 0 0-21.333334 21.333334V170.666667h-21.333333a128 128 0 0 0-102.4 51.2l-38.4 51.2A256 256 0 0 0 256 426.666667v117.76a128 128 0 0 1-37.546667 90.453333l-35.413333 35.413333a42.666667 42.666667 0 0 0-12.373333 29.866667V725.333333a42.666667 42.666667 0 0 0 42.666666 42.666667h597.333334a42.666667 42.666667 0 0 0 42.666666-42.666667v-25.173333a42.666667 42.666667 0 0 0-12.373333-29.866667zM682.666667 682.666667H341.333333v-256a170.666667 170.666667 0 0 1 34.133334-102.4l38.4-51.2a42.666667 42.666667 0 0 1 34.133333-17.066667h128a42.666667 42.666667 0 0 1 34.133333 17.066667l38.4 51.2A170.666667 170.666667 0 0 1 682.666667 426.666667z m-170.666667 256a85.333333 85.333333 0 0 0 85.333333-85.333334h-170.666666a85.333333 85.333333 0 0 0 85.333333 85.333334zM238.506667 222.293333a15.36 15.36 0 0 0-2.56-21.333333l-42.666667-33.28a17.066667 17.066667 0 0 0-12.8-3.84A15.786667 15.786667 0 0 0 170.666667 170.666667a428.8 428.8 0 0 0-85.333334 233.386666 20.053333 20.053333 0 0 0 5.973334 15.786667 20.48 20.48 0 0 0 15.36 6.826667h42.666666a21.76 21.76 0 0 0 21.333334-20.48 346.453333 346.453333 0 0 1 67.84-183.893334zM853.333333 170.666667a16.213333 16.213333 0 0 0-11.52-6.826667 18.773333 18.773333 0 0 0-13.226666 3.84l-42.666667 33.28a15.36 15.36 0 0 0-2.56 21.333333A346.453333 346.453333 0 0 1 853.333333 406.186667a21.333333 21.333333 0 0 0 20.906667 20.48h42.666667a21.333333 21.333333 0 0 0 15.36-6.826667 23.466667 23.466667 0 0 0 6.4-15.786667A432.213333 432.213333 0 0 0 853.333333 170.666667z" /></svg>