<?xml version="1.0" standalone="no"?><!DOCTYPE svg PUBLIC "-//W3C//DTD SVG 1.1//EN" "http://www.w3.org/Graphics/SVG/1.1/DTD/svg11.dtd"><svg class="icon" width="200px" height="200.00px" viewBox="0 0 1024 1024" version="1.1" xmlns="http://www.w3.org/2000/svg"><path d="M840.96 670.293333l-35.413333-35.413333a128 128 0 0 1-37.546667-90.453333V426.666667a256 256 0 0 0-51.2-153.6l-38.4-51.2A128 128 0 0 0 576 170.666667H554.666667V106.666667a21.333333 21.333333 0 0 0-21.333334-21.333334h-42.666666a21.333333 21.333333 0 0 0-21.333334 21.333334V170.666667h-21.333333a128 128 0 0 0-102.4 51.2l-38.4 51.2A256 256 0 0 0 256 426.666667v117.76a128 128 0 0 1-37.546667 90.453333l-35.413333 35.413333a42.666667 42.666667 0 0 0-12.373333 29.866667V725.333333a42.666667 42.666667 0 0 0 42.666666 42.666667h597.333334a42.666667 42.666667 0 0 0 42.666666-42.666667v-25.173333a42.666667 42.666667 0 0 0-12.373333-29.866667z m-222.293333-163.413333h-69.12v69.12a21.333333 21.333333 0 0 1-21.333334 21.333333h-32.426666a21.333333 21.333333 0 0 1-21.333334-21.333333v-69.12H405.333333a21.333333 21.333333 0 0 1-21.333333-21.333333v-32.426667a21.333333 21.333333 0 0 1 21.333333-21.333333h69.12V362.666667a21.333333 21.333333 0 0 1 21.333334-21.333334h32.426666a21.333333 21.333333 0 0 1 21.333334 21.333334v69.12h69.12a21.333333 21.333333 0 0 1 21.333333 21.333333v32.426667a21.333333 21.333333 0 0 1-21.333333 21.333333zM512 938.666667a85.333333 85.333333 0 0 0 85.333333-85.333334h-170.666666a85.333333 85.333333 0 0 0 85.333333 85.333334z" /></svg>