<?xml version="1.0" standalone="no"?><!DOCTYPE svg PUBLIC "-//W3C//DTD SVG 1.1//EN" "http://www.w3.org/Graphics/SVG/1.1/DTD/svg11.dtd"><svg class="icon" width="200px" height="200.00px" viewBox="0 0 1024 1024" version="1.1" xmlns="http://www.w3.org/2000/svg"><path d="M883.626667 319.573333l-179.2-179.2a42.666667 42.666667 0 0 0-29.866667-12.373333 42.666667 42.666667 0 0 0-42.666667 28.16l-19.626666 61.44a85.333333 85.333333 0 0 1-33.28 42.666667l-136.533334 90.88a128 128 0 0 1-72.106666 22.186666H306.773333a42.666667 42.666667 0 0 0-30.293333 10.666667l-17.493333 17.92a42.666667 42.666667 0 0 0 0 60.16l301.653333 301.653333a42.666667 42.666667 0 0 0 30.293333 12.373334 42.666667 42.666667 0 0 0 29.866667-12.373334l17.92-17.493333a42.666667 42.666667 0 0 0 12.373333-30.293333v-62.293334a128 128 0 0 1 22.186667-72.106666l90.88-136.533334a85.333333 85.333333 0 0 1 42.666667-33.28l61.44-21.76a42.666667 42.666667 0 0 0 15.36-70.4z m-177.92 58.88l-164.266667 247.04-142.933333-142.933333 247.04-164.266667 58.026666-58.026666 60.16 60.16zM189.013333 744.106667a128 128 0 0 0-28.586666 42.666666L128 864.853333a21.333333 21.333333 0 0 0 4.693333 23.04 21.333333 21.333333 0 0 0 23.04 4.693334l77.226667-30.72a128 128 0 0 0 42.666667-28.586667l124.16-124.16-86.186667-89.6z" /></svg>