<?xml version="1.0" standalone="no"?><!DOCTYPE svg PUBLIC "-//W3C//DTD SVG 1.1//EN" "http://www.w3.org/Graphics/SVG/1.1/DTD/svg11.dtd"><svg class="icon" width="200px" height="200.00px" viewBox="0 0 1024 1024" version="1.1" xmlns="http://www.w3.org/2000/svg"><path d="M682.666667 448a21.333333 21.333333 0 0 1-21.333334 21.333333H554.666667v106.666667a21.333333 21.333333 0 0 1-21.333334 21.333333h-42.666666a21.333333 21.333333 0 0 1-21.333334-21.333333V469.333333H362.666667a21.333333 21.333333 0 0 1-21.333334-21.333333v-42.666667a21.333333 21.333333 0 0 1 21.333334-21.333333H469.333333V277.333333a21.333333 21.333333 0 0 1 21.333334-21.333333h42.666666a21.333333 21.333333 0 0 1 21.333334 21.333333V384h106.666666a21.333333 21.333333 0 0 1 21.333334 21.333333zM512 85.333333a341.333333 341.333333 0 0 0-341.333333 341.333334c0 265.386667 215.466667 263.253333 267.093333 417.28l21.76 65.706666a42.666667 42.666667 0 0 0 42.666667 29.013334h23.893333a42.666667 42.666667 0 0 0 42.666667-29.013334l21.76-65.706666C640 689.92 853.333333 692.053333 853.333333 426.666667a341.333333 341.333333 0 0 0-341.333333-341.333334z" /></svg>