<?xml version="1.0" standalone="no"?><!DOCTYPE svg PUBLIC "-//W3C//DTD SVG 1.1//EN" "http://www.w3.org/Graphics/SVG/1.1/DTD/svg11.dtd"><svg class="icon" width="200px" height="200.00px" viewBox="0 0 1024 1024" version="1.1" xmlns="http://www.w3.org/2000/svg"><path d="M643.84 347.306667L564.906667 426.666667l78.933333 79.36a20.48 20.48 0 0 1 0 29.866666l-22.613333 22.613334a20.48 20.48 0 0 1-29.866667 0L512 479.573333l-79.36 78.933334a20.48 20.48 0 0 1-29.866667 0l-22.613333-22.613334a20.48 20.48 0 0 1 0-29.866666L459.093333 426.666667 380.16 347.306667a20.48 20.48 0 0 1 0-29.866667l22.613333-22.613333a20.48 20.48 0 0 1 29.866667 0L512 373.76l79.36-78.933333a20.48 20.48 0 0 1 29.866667 0l22.613333 22.613333a20.48 20.48 0 0 1 0 29.866667zM512 170.666667a256 256 0 0 0-256 256c0 119.466667 50.346667 159.573333 120.32 213.333333A391.253333 391.253333 0 0 1 512 799.146667 394.666667 394.666667 0 0 1 647.68 640c69.973333-53.76 120.32-93.866667 120.32-213.333333a256 256 0 0 0-256-256m0-85.333334a341.333333 341.333333 0 0 1 341.333333 341.333334c0 265.386667-215.466667 263.253333-267.093333 417.28l-21.76 65.706666a42.666667 42.666667 0 0 1-42.666667 29.013334h-23.893333a42.666667 42.666667 0 0 1-42.666667-29.013334l-21.76-65.706666C386.133333 689.92 170.666667 692.053333 170.666667 426.666667a341.333333 341.333333 0 0 1 341.333333-341.333334z" /></svg>