<?xml version="1.0" standalone="no"?><!DOCTYPE svg PUBLIC "-//W3C//DTD SVG 1.1//EN" "http://www.w3.org/Graphics/SVG/1.1/DTD/svg11.dtd"><svg class="icon" width="200px" height="200.00px" viewBox="0 0 1024 1024" version="1.1" xmlns="http://www.w3.org/2000/svg"><path d="M643.84 506.026667a20.48 20.48 0 0 1 0 29.866666l-22.613333 22.613334a20.48 20.48 0 0 1-29.866667 0L512 479.573333l-79.36 78.933334a20.48 20.48 0 0 1-29.866667 0l-22.613333-22.613334a20.48 20.48 0 0 1 0-29.866666L459.093333 426.666667 380.16 347.306667a20.48 20.48 0 0 1 0-29.866667l22.613333-22.613333a20.48 20.48 0 0 1 29.866667 0L512 373.76l79.36-78.933333a20.48 20.48 0 0 1 29.866667 0l22.613333 22.613333a20.48 20.48 0 0 1 0 29.866667L564.906667 426.666667zM512 85.333333a341.333333 341.333333 0 0 0-341.333333 341.333334c0 265.386667 215.466667 263.253333 267.093333 417.28l21.76 65.706666a42.666667 42.666667 0 0 0 42.666667 29.013334h23.893333a42.666667 42.666667 0 0 0 42.666667-29.013334l21.76-65.706666C640 689.92 853.333333 692.053333 853.333333 426.666667a341.333333 341.333333 0 0 0-341.333333-341.333334z" /></svg>