<?xml version="1.0" standalone="no"?><!DOCTYPE svg PUBLIC "-//W3C//DTD SVG 1.1//EN" "http://www.w3.org/Graphics/SVG/1.1/DTD/svg11.dtd"><svg class="icon" width="200px" height="200.00px" viewBox="0 0 1024 1024" version="1.1" xmlns="http://www.w3.org/2000/svg"><path d="M874.666667 426.666667h-213.333334a21.333333 21.333333 0 0 1-21.333333-21.333334v-12.373333a20.906667 20.906667 0 0 1 6.4-15.36l75.946667-75.946667A295.68 295.68 0 0 0 512 213.333333a298.666667 298.666667 0 1 0 298.666667 318.72 21.333333 21.333333 0 0 1 21.333333-20.053333h42.666667a22.186667 22.186667 0 0 1 15.36 6.826667 21.333333 21.333333 0 0 1 5.546666 15.786666 384 384 0 1 1-111.786666-293.973333l63.573333-63.573333a20.906667 20.906667 0 0 1 14.933333-6.4h12.373334a21.333333 21.333333 0 0 1 21.333333 21.333333v213.333333a21.333333 21.333333 0 0 1-21.333333 21.333334z" /></svg>