<?xml version="1.0" standalone="no"?><!DOCTYPE svg PUBLIC "-//W3C//DTD SVG 1.1//EN" "http://www.w3.org/Graphics/SVG/1.1/DTD/svg11.dtd"><svg class="icon" width="200px" height="200.00px" viewBox="0 0 1024 1024" version="1.1" xmlns="http://www.w3.org/2000/svg"><path d="M890.026667 145.066667l-11.093334-11.093334a21.333333 21.333333 0 0 0-14.933333-5.973333 20.053333 20.053333 0 0 0-7.253333 0L142.08 384a21.333333 21.333333 0 0 0-14.08 21.76v6.826667a21.76 21.76 0 0 0 12.373333 19.626666l306.773334 144.64 144.64 306.773334a21.76 21.76 0 0 0 19.626666 12.373333h6.826667a21.333333 21.333333 0 0 0 20.053333-14.08L896 167.253333a21.333333 21.333333 0 0 0-5.973333-22.186666z m-282.88 570.88L554.666667 602.453333a85.333333 85.333333 0 0 1 14.506666-94.293333l66.56-72.106667a21.333333 21.333333 0 0 0 0-29.44l-16.213333-16.213333a21.333333 21.333333 0 0 0-29.44 0l-72.106667 66.56a85.333333 85.333333 0 0 1-96.426666 12.373333L308.053333 416.853333l466.346667-167.253333z" /></svg>