<?xml version="1.0" standalone="no"?><!DOCTYPE svg PUBLIC "-//W3C//DTD SVG 1.1//EN" "http://www.w3.org/Graphics/SVG/1.1/DTD/svg11.dtd"><svg class="icon" width="200px" height="200.00px" viewBox="0 0 1024 1024" version="1.1" xmlns="http://www.w3.org/2000/svg"><path d="M896 430.933333l-119.466667-213.333333c-29.866667-55.466667-85.333333-89.6-149.333333-89.6H396.8c-64 0-119.466667 34.133333-149.333333 89.6l-119.466667 213.333333c-29.866667 51.2-29.866667 115.2 0 166.4l119.466667 213.333334c29.866667 55.466667 85.333333 89.6 149.333333 89.6h230.4c64 0 119.466667-34.133333 149.333333-89.6l119.466667-213.333334c29.866667-55.466667 29.866667-115.2 0-166.4zM819.2 554.666667l-119.466667 213.333333c-17.066667 25.6-42.666667 42.666667-72.533333 42.666667H396.8c-29.866667 0-59.733333-17.066667-72.533333-42.666667l-119.466667-213.333333c-12.8-25.6-12.8-55.466667 0-81.066667l119.466667-213.333333c17.066667-25.6 42.666667-42.666667 72.533333-42.666667h230.4c29.866667 0 59.733333 17.066667 72.533333 42.666667l119.466667 213.333333c17.066667 21.333333 17.066667 55.466667 0 81.066667zM512 384c-72.533333 0-128 55.466667-128 128s55.466667 128 128 128 128-55.466667 128-128-55.466667-128-128-128z" /></svg>