<?xml version="1.0" standalone="no"?><!DOCTYPE svg PUBLIC "-//W3C//DTD SVG 1.1//EN" "http://www.w3.org/Graphics/SVG/1.1/DTD/svg11.dtd"><svg class="icon" width="200px" height="200.00px" viewBox="0 0 1024 1024" version="1.1" xmlns="http://www.w3.org/2000/svg"><path d="M896 810.666667a128 128 0 0 1-256 0 89.173333 89.173333 0 0 1 0-10.666667 21.76 21.76 0 0 0-10.24-20.48l-279.04-162.986667a21.333333 21.333333 0 0 0-23.04 0A125.44 125.44 0 0 1 256 640a128 128 0 0 1 0-256 125.44 125.44 0 0 1 71.68 22.613333 21.333333 21.333333 0 0 0 23.04 0l279.466667-162.986666a21.76 21.76 0 0 0 9.813333-19.626667A89.173333 89.173333 0 0 1 640 213.333333a128 128 0 1 1 45.653333 97.28l-291.84 170.666667a21.76 21.76 0 0 0-10.24 20.48 133.546667 133.546667 0 0 1 0 21.333333 21.76 21.76 0 0 0 10.24 20.48l279.466667 162.986667a21.333333 21.333333 0 0 0 23.04 0A125.44 125.44 0 0 1 768 682.666667a128 128 0 0 1 128 128z" /></svg>