<?xml version="1.0" standalone="no"?><!DOCTYPE svg PUBLIC "-//W3C//DTD SVG 1.1//EN" "http://www.w3.org/Graphics/SVG/1.1/DTD/svg11.dtd"><svg class="icon" width="200px" height="200.00px" viewBox="0 0 1024 1024" version="1.1" xmlns="http://www.w3.org/2000/svg"><path d="M505.6 57.6a20.906667 20.906667 0 0 1 6.4 15.36V170.666667a341.333333 341.333333 0 0 1 295.253333 512 22.186667 22.186667 0 0 1-15.786666 10.24 21.333333 21.333333 0 0 1-17.92-5.973334l-31.146667-31.146666a21.333333 21.333333 0 0 1-3.84-25.173334A253.44 253.44 0 0 0 768 512a256 256 0 0 0-256-256v100.693333a20.906667 20.906667 0 0 1-6.4 15.36l-8.533333 8.533334a21.333333 21.333333 0 0 1-30.293334 0L315.733333 229.973333a21.76 21.76 0 0 1 0-30.293333l151.04-150.613333a21.333333 21.333333 0 0 1 30.293334 0z m51.626667 585.813333a21.333333 21.333333 0 0 0-30.293334 0l-8.533333 8.533334a20.906667 20.906667 0 0 0-6.4 15.36V768a256 256 0 0 1-256-256 248.746667 248.746667 0 0 1 29.866667-119.04 21.76 21.76 0 0 0-3.84-25.173333l-31.573334-31.573334a21.333333 21.333333 0 0 0-17.92-5.973333 22.186667 22.186667 0 0 0-15.786666 11.093333A341.333333 341.333333 0 0 0 512 853.333333v97.706667a20.906667 20.906667 0 0 0 6.4 15.36l8.533333 8.533333a21.333333 21.333333 0 0 0 30.293334 0l151.04-150.613333a21.76 21.76 0 0 0 0-30.293333z" /></svg>