<?xml version="1.0" standalone="no"?><!DOCTYPE svg PUBLIC "-//W3C//DTD SVG 1.1//EN" "http://www.w3.org/Graphics/SVG/1.1/DTD/svg11.dtd"><svg class="icon" width="200px" height="200.00px" viewBox="0 0 1024 1024" version="1.1" xmlns="http://www.w3.org/2000/svg"><path d="M938.666667 659.626667a21.333333 21.333333 0 0 1-21.333334 23.04H853.333333a20.906667 20.906667 0 0 1-20.906666-19.2c-12.373333-120.32-141.226667-215.466667-298.666667-215.466667a337.066667 337.066667 0 0 0-221.44 78.08l107.52 107.52a20.906667 20.906667 0 0 1 6.4 15.36v12.373333a21.333333 21.333333 0 0 1-21.333333 21.333334h-298.666667a21.333333 21.333333 0 0 1-21.333333-21.333334v-298.666666A21.333333 21.333333 0 0 1 106.666667 341.333333h12.373333a20.906667 20.906667 0 0 1 15.36 6.4l103.253333 103.253334a442.453333 442.453333 0 0 1 298.666667-109.653334c212.48 0 388.266667 140.373333 402.346667 318.293334z" /></svg>