<svg width="714" height="640" xmlns="http://www.w3.org/2000/svg">

 <g>
  <title>background</title>
  <rect fill="none" id="canvas_background" height="402" width="582" y="-1" x="-1"/>
 </g>
 <g>
  <title>Layer 1</title>
  <rect id="svg_1" height="148" width="650" y="69.5" x="32" stroke-opacity="null" stroke-width="null" stroke="null" fill="#56aaff"/>
  <path fill="#ffffff" d="m236.330124,397.450989q-1.51001,1.799988 -0.98999,2.969971q0.470001,1.080017 1.12999,2.030029q0.819992,1.179993 1.110001,2.029968q1.690002,4.960022 2.339996,10.880005q0.440002,4.070007 1.950012,14.27002c0.440002,2.97998 0.589996,5.97998 1.160004,8.940002q0.639969,3.279968 1.029999,6.649963q0.75,6.52002 1.539978,12.369995c0.470001,3.52002 0.37999,6.880005 0.780029,10.300049q0.429993,3.659973 0.269989,7.539978c-0.179993,4.169983 0.48999,8.210022 0.399994,12.47998q-0.080002,3.200012 0.080017,6.410034c0.069977,1.429993 -0.290009,2.72998 -0.190002,4.130005q0.819977,11.72998 0.659973,23.959961c-0.089996,6.5 0.190002,13.75 1.660004,20.179993q2.430008,10.550049 8.120041,21.530029c2.459991,4.76001 6.099976,9.23999 9.549988,13.299988q5.51001,6.47998 12.950012,11.690002c6.649994,4.659973 13.529968,9.070007 21.189972,11.440002q6.629974,2.049988 13.23999,4.049988q0.360016,0.109985 0.530029,0.450012q0.070007,0.130005 0.040009,0.25q-0.110046,0.450012 -0.570038,0.460022l-8.029999,0.159973q-115.770004,0.030029 -231.540001,-0.01001q-17.179989,-0.01001 -29.299999,-12.51001q-8.810001,-9.079956 -11.069992,-20.339966q-0.859997,-4.26001 -0.85001,-19.299988q0.14999,-152.910095 0.10001,-305.280151q0,-0.850006 0.849991,-0.850006l178.060017,0.040009a0.4,0.4 0 0 1 0.369995,0.540009c-3.309998,8.650024 -6.570007,17.529999 -8.200012,26.730011q-5.160004,29.220001 -0.630005,54.870026q6.620071,37.540009 32.26001,67.640045l0,0.000031l0,0.000031zm-72.015503,-92.846832a25.57,25.57 0 0 0 -25.614594,-25.525391l-36.939919,0.064484a25.57,25.57 0 0 0 -25.525391,25.614624l0.050903,29.139893a25.57,25.57 0 0 0 25.614586,25.525391l36.939926,-0.064514a25.57,25.57 0 0 0 25.525391,-25.614594l-0.050888,-29.139893l-0.000015,0zm37.431702,71.313202a17.15,15.13 -10.800000190734863 0 0 -19.681305,-11.648376a17.15,15.13 -10.800000190734863 0 0 -14.011078,18.075562a17.15,15.13 -10.800000190734863 0 0 19.681274,11.648438a17.15,15.13 -10.800000190734863 0 0 14.011108,-18.075623zm-37.344391,59.707275a25.389999,25.389999 0 0 0 -25.301208,-25.478455l-37.219803,-0.129944a25.389999,25.389999 0 0 0 -25.478531,25.30127l-0.104103,29.819763a25.389999,25.389999 0 0 0 25.301193,25.478577l37.219826,0.129822a25.389999,25.389999 0 0 0 25.478531,-25.301208l0.104111,-29.819763l0,-0.000031l-0.000015,-0.000031zm70.518188,2.236328c0.690002,-7.780029 -3.959991,-14.549988 -11.869995,-15.690002c-6.209991,-0.909973 -13.87001,5.630005 -17.820023,10.140015c-5.919968,6.76001 -4.25,17.059998 3.820023,21.330017q5.119995,2.709961 9.899979,1.509949c6.810013,-1.719971 15.279999,-9.399963 15.970001,-17.289978l0.000015,0zm-70.566498,90.763184a25.51,25.51 0 0 0 -25.554382,-25.465393l-37.020027,0.064636a25.51,25.51 0 0 0 -25.465393,25.554443l0.052803,30.239929a25.51,25.51 0 0 0 25.554398,25.465393l37.020004,-0.064575a25.51,25.51 0 0 0 25.465378,-25.554504l-0.052795,-30.239929l0.000015,0zm236.346542,77.226807q-0.210022,-1.02002 0.099976,-1.950012q0.179962,-0.539978 0.720032,-0.699951q4.429993,-1.340027 8.919983,-2.970032q15.130005,-5.469971 27.51001,-16.52002q3.719971,-3.329956 7.869995,-7.799988c1.709961,-1.839966 2.899933,-3.820007 4.329956,-5.830017c2.27002,-3.199951 3.690002,-6.589966 5.600037,-9.869995q1.499969,-2.569946 2.580017,-5.409973q5.23999,-13.679993 5.509949,-28.429993q0.380005,-20.919983 0.820007,-43.380005q0.360077,-18.349976 1.920044,-30.530029q1.48999,-11.549988 4.619995,-30.969971q0.73999,-4.570007 0.98999,-9.210022q0.23999,-4.48996 0.870056,-9.309998a0.69,0.69 0 0 0 -0.669983,-0.779968q-0.690002,-0.01001 -0.650024,-0.840027q2.090088,-2.779968 4.310059,-5.409973q19.059998,-22.51001 27.25,-50.369995q10.43985,-35.52002 2.72998,-72.990021q-2.699982,-13.100006 -7.419983,-24.329987a0.46,0.45 78.80000305175781 0 1 0.419983,-0.62999l180.689972,0.039978q0.52002,0.01001 0.52002,0.529999q-0.01001,163.670029 -0.02002,315.190018q0,20.469971 -15.919922,33.560059q-10.540039,8.669922 -24.06012,8.7099q-119.769958,0.360107 -239.539886,0.200012l-0.000061,0l-0.000031,0l-0.000031,0zm235.379974,-301.25a25.48,25.48 0 0 0 -25.480042,-25.47998l-37.5,0a25.48,25.48 0 0 0 -25.47998,25.47998l0,29.26001a25.48,25.48 0 0 0 25.47998,25.47998l37.5,0a25.48,25.48 0 0 0 25.480042,-25.47998l0,-29.26001zm-92.827637,77.054626a17.08,15.16 8.5 0 0 -14.651611,-17.518127a17.08,15.16 8.5 0 0 -19.133148,12.468933a17.08,15.16 8.5 0 0 14.651581,17.518066a17.08,15.16 8.5 0 0 19.133179,-12.468872zm92.619934,53.19696a25,25 0 0 0 -25.17395,-24.82489l-38.459045,0.268494a25,25 0 0 0 -24.824829,25.174011l0.213196,30.539185a25,25 0 0 0 25.173889,24.824951l38.459106,-0.268555a25,25 0 0 0 24.824829,-25.17395l-0.213196,-30.539246zm-155.662323,11.278442c4.420044,5.769958 11.380005,11.309998 19.030029,8.829956c5.150024,-1.659943 9.549988,-6.049988 10.359985,-11.469971c1.190002,-7.869995 -5.490021,-13.789978 -11.409973,-18.169952q-5.98999,-4.429962 -12,-2.410004c-10.290039,3.460022 -12.26001,15.030029 -5.980042,23.220001l0,-0.000031zm137.550018,137.380005c10,-3.040039 18.130005,-12.75 18.190002,-23.860046q0.070007,-13.070007 0.099976,-29.25q0.01001,-5.639954 -0.940002,-9.279968c-2.880005,-11.049988 -11.830017,-17.530029 -23.380005,-17.76001q-17.640015,-0.349976 -39.01001,0.109985c-15.070007,0.320007 -24.959961,11.190002 -25.169983,25.98999q-0.190002,13.77002 -0.049988,28.119995q0.140015,15.060059 12.080017,22.950012q5.5,3.630005 11.23999,3.76001q11.880005,0.25 27.419983,0.380005q15.299988,0.119995 19.52002,-1.159973z" id="svg_79"/>
  <rect fill="#ffffff" x="-166.12988" y="-208.05905" transform="rotate(-0.1 139293 -154116)" width="20.74" height="66.34" rx="10.03" id="svg_65"/>
  <rect fill="#ffffff" x="-166.04988" y="-208.08905" transform="rotate(-0.1 139260 -201133)" width="20.58" height="66.4" rx="9.96" id="svg_66"/>
  <rect fill="#39b5ff" x="-165.82988" y="-207.79905" transform="rotate(-0.2 69836.1 -195034)" width="20.14" height="65.82" rx="9.74" id="svg_68"/>
  <rect fill="#ffffff" x="597.05012" y="34.99095" width="20.64" height="66.42" rx="9.99" id="svg_67"/>
  <path fill="#3f6a8c" d="m566.480103,38.640949c-0.869995,-8.20999 4.900024,-18.619999 10.049988,-24.659999c11.530029,-13.48999 32.080017,-17.78998 48.280029,-10.37999q16.48999,7.54999 22.919983,25.090009q2.320007,6.340002 2.380005,12.509981q0,0.829998 0.830017,0.860001q27.5,1.079998 45.469971,21.23q12.940002,14.520008 16.059998,33.119999q1.090027,6.5 1.090027,16.850037q0.059998,226.409973 0.01001,451.719971q0,9.48999 -1.530029,16.369995c-7.619995,34.169983 -38.039978,58.47998 -72.859985,58.47998q-292.389984,-0.019958 -561.590034,-0.019958c-12.610001,0 -23.600021,-1.25 -35.27,-7.01001q-24.799999,-12.26001 -36.64,-38.059998c-4.5,-9.820007 -5.67,-20 -5.66,-31.720032q0.22,-220.529968 -0.02,-447.829987q-0.00998,-11.899956 1.13,-18.259979c5.21001,-28.889999 30.560001,-52.909981 60.020009,-54.359989q4.140003,-0.210011 7.979992,-0.240009q0.589996,-0.009991 0.680008,-0.590012q0.509995,-3.139999 0.950005,-6.049988c1.789986,-11.670012 9.319977,-22.390012 18.729996,-28.580001c18.269974,-12.03 41.640038,-8.5 55.340004,8.40999q8.070038,9.970011 9.100037,23.000002q0.01001,0.029999 0.029999,0.019989l0.25,-0.019989q0.23999,-0.019993 0.220001,-0.25q-0.309998,-4.320011 0.919952,-7.769991c5.02005,-14.179981 14.800049,-25.030001 29.460022,-28.969981c27.12999,-7.30001 52.47998,13.90001 53.050018,41.360001a0.64,0.63 -0.5 0 0 0.639984,0.619999l242.250046,-0.009991q0.849976,0 0.950012,-0.85001q0.459961,-3.98 1.269928,-7.96999c2.79007,-13.810009 12.560028,-26.08 25.440033,-31.37001c12.799957,-5.25 27.439972,-4.06999 38.959991,3.75q16.059998,10.92 18.630005,31.46001q0.029968,0.179989 0.199951,0.170002l0.259949,-0.02q0.03009,0 0.020081,-0.030003l0,-0.000019l0,-0.000019l0,-0.000011zm-443.020386,6.461903a10.03,10.03 0 0 0 -10.047516,-10.01239l-0.679993,0.001099a10.03,10.03 0 0 0 -10.012482,10.047501l0.08078,46.279999a10.03,10.03 0 0 0 10.047523,10.01239l0.679993,-0.001099a10.03,10.03 0 0 0 10.012497,-10.047493l-0.080811,-46.280018l0,0.000011l0.000008,0zm81.979797,-0.229801a9.96,9.96 0 0 0 -9.977295,-9.9426l-0.660004,0.001099a9.96,9.96 0 0 0 -9.942596,9.977402l0.081085,46.479889a9.96,9.96 0 0 0 9.977295,9.942604l0.660004,-0.001114a9.96,9.96 0 0 0 9.942596,-9.977386l-0.081085,-46.479912l0,0.000008l0,0.000011zm412.25061,0.107891a9.99,9.99 0 0 0 -9.98999,-9.98999l-0.660034,0a9.99,9.99 0 0 0 -9.98999,9.98999l0,46.44001a9.99,9.99 0 0 0 9.98999,9.98999l0.660034,0a9.99,9.99 0 0 0 9.98999,-9.98999l0,-46.44001zm-82.850891,0.055008a9.74,9.74 0 0 0 -9.774048,-9.706009l-0.659973,0.002411a9.74,9.74 0 0 0 -9.705872,9.773899l0.161682,46.339687a9.74,9.74 0 0 0 9.773987,9.705994l0.659973,-0.00238a9.74,9.74 0 0 0 9.705933,-9.773903l-0.161682,-46.339729l0,0.000019l0,0.000011zm-500.989105,70.385002l-0.049999,46.480003l-0.049988,52.799988a0.19,0.18 1.399999976158142 0 0 0.189999,0.190002l195.110001,-0.040009a2.27,2.25 -71.5 0 0 1.809998,-0.910004q9.179993,-12.189972 20.149994,-22.789978q18.540009,-17.320023 41.740021,-27.940002c41.460022,-18.740021 87.549988,-18.540009 128.669952,1.25q28.060028,13.269989 48.440002,36.359985l10.48999,13.01001a2.8,2.78 70.4000015258789 0 0 2.170044,1.040009l196.679993,0q1.199951,0 1.199951,-1.200012l0.01001,-28.679977q0.360046,-37.350021 -0.269958,-74.879997q-0.050049,-2.890007 -0.430054,-4.690002q-1.769958,-10.909966 -9.959961,-19.559998c-4.609985,-4.870003 -12.080017,-9.649979 -18.859985,-9.820007q-0.580017,-0.019989 -0.559998,0.549995l0.189941,6.310013q-0.209961,2.279999 -0.419983,10.209976q-0.299988,11.160004 -6.76001,22.280014c-9.610046,16.529984 -29.259949,23.819992 -47.719971,18.329987c-15.049988,-4.469971 -26.27002,-18.089996 -29.049988,-33.399986a0.08,0.08 0 0 0 -0.150024,0q-5.339966,25.940002 -30.649963,33.969994q-13.080017,3.399979 -25.740051,-1.110001q-19.720001,-8.670006 -26.009979,-28.319992q-2.209991,-6.890015 -2.149994,-16.959991l0.060028,-9.840004a0.5,0.49 0.6000000238418579 0 0 -0.500031,-0.5l-242.959961,-0.099983q-0.419998,0 -0.419998,0.419998l-0.060013,10.999977q-0.279999,2.26001 -0.469986,4.730011q-1.570023,20.43 -17.25,33.309998q-4.780014,3.920006 -10.639984,6.149986q-15.890015,5.800034 -31.75,-0.850006q-4.480011,-1.869995 -9.290009,-5.969955q-11.730011,-9.970001 -14.779999,-25.01001q-0.220001,-1.060005 -0.429993,0q-3.77002,18.709991 -20.220001,29.079987c-32.19001,17.140015 -65.240021,-8.55999 -63.210014,-42.709976q0.179993,-3.109993 -0.129997,-4.529999l0.039993,-6.630005q0,-0.610001 -0.610001,-0.589996q-12.789993,0.360001 -21.489994,6.970001c-10.460018,7.949997 -14.230007,19.469986 -13.91,32.589996l-0.000019,0l-0.000011,-0.000008l0,-0.000031zm300.450012,67.920006q-36.779968,7.029999 -63.73999,33.089996c-27.099991,26.190033 -39.86998,61.289993 -35.819992,99.110031c3.339996,31.179962 18.519989,57.689972 42.679977,77.449982q7.320007,5.97998 14.450043,11.380005c7.389984,5.580017 14.139984,13.950012 14.119995,23.820007q-0.01001,7.25 -0.029999,15.370056q0,0.559998 0.559998,0.559998l33.299988,-0.049988q0.580017,0 0.630005,-0.580078q0.26001,-3.419922 0.220001,-7.109985q-0.190033,-20.550049 -0.110016,-39.670044q0.01001,-0.649902 -0.629974,-0.759949c-13.860016,-2.559998 -26.769989,-7.420044 -37.869995,-15.930054q-3.149994,-2.409912 -6.240021,-5.009949c-8.949982,-8.51001 -15.970001,-18.110046 -19.829987,-29.649963c-4.140015,-12.390015 -4.170013,-27.940002 11.469971,-31.330048q2.850006,-0.620026 5.990021,0.52002q8.080017,2.919952 10.600006,11.620026q1.259979,4.320007 2.140015,8.640015q0.939972,3.629944 2.759979,6.830017c13.27002,23.379883 46.240021,29.269958 69.269958,20.369995q9.77002,-3.780029 17.690002,-11.710022q7.140015,-7.150024 9.450012,-16.380005q1.059998,-6.470001 1.630005,-8.320007q2.969971,-9.720001 13.869995,-11.690002q2.72998,-0.5 5.75,0.650024q9.419983,3.599976 10.869995,14.079987c1.75,12.579987 -4.919983,27.110016 -12.51004,36.689972q-8.149933,10.300049 -19.23999,17.460022q-15.449982,10.209961 -33.869965,12.97998q-0.289978,0.040039 -0.289978,0.330017l0.029968,47.449982a0.58,0.58 0 0 0 0.580017,0.580048l32.590027,0a0.63,0.63 0 0 0 0.629944,-0.630005q0,-7.790039 0.170044,-15.070007q0.190002,-8.400024 4,-13.850037q5.529938,-7.899963 15.070007,-14.709961c17.539978,-12.52002 32.019958,-28.720032 41.089935,-46.47998q10.140045,-19.880096 11.230011,-44.550018q0.850037,-19.790039 -3.259949,-35.980011c-15.210022,-59.880051 -77.410004,-101.840027 -139.400024,-89.520004l0,-0.000031l0,-0.000031zm-28.019989,422.580002l94.420013,-0.070007q119.769928,0.160034 239.539948,-0.200012q13.52002,-0.039978 24.060059,-8.709961q15.919922,-13.090027 15.919922,-33.559998q0.01001,-151.52002 0.02002,-315.190094q0,-0.520004 -0.52002,-0.530014l-180.689911,-0.039978a0.46,0.45 78.80000305175781 0 0 -0.419983,0.62999q4.720001,11.230011 7.419983,24.330017q7.70993,37.470001 -2.72998,72.990051q-8.190002,27.859985 -27.25,50.369995q-2.219971,2.630005 -4.310059,5.409973q-12.77005,13.410004 -27.379944,24.899994c-2.320007,1.820038 -4.690002,3.959961 -6.690002,6.100006q-1.029968,1.100037 -1.029968,2.75q-0.02002,10.649994 -0.140015,21.720032a2.94,2.92 24 0 0 0.799988,2.059998c11.22998,12.049988 8.609985,29.75 -6.190002,37.01001q-0.559998,0.269958 -0.070007,0.649963c7.900024,6.169952 9.75,16.879974 7.340027,26.669952c-5.399963,21.990051 -21.25,39.490051 -41.660004,49.630005c-18.300018,9.100037 -39.859955,11 -59.659943,7.429932c-26.390015,-4.759949 -48.25,-21.669922 -60.090057,-45.609985c-6.120056,-12.380005 -8.159943,-28.149963 3.149963,-38.230011a0.27,0.27 0 0 0 -0.050018,-0.439972c-5.820007,-3.080048 -10.23999,-8.590057 -11.720032,-15.129944q-2.71994,-12 5.650024,-21.25q0.850006,-0.929993 0.840027,-2.200012q-0.090027,-10.5 -0.040009,-22.200012a3.96,3.94 -65.19999694824219 0 0 -0.950012,-2.599976q-2.309998,-2.700012 -5.269989,-5.120056c-11.820007,-9.690002 -22.109985,-18.360016 -32.250015,-30.040009q-25.639938,-30.100037 -32.26001,-67.639954q-4.529999,-25.650024 0.630005,-54.870056c1.630005,-9.199982 4.890015,-18.079987 8.200012,-26.72998a0.4,0.4 0 0 0 -0.369995,-0.540024l-178.060017,-0.040009q-0.849991,0 -0.849991,0.850021q0.049992,152.370026 -0.100018,305.279968q-0.009983,15.039978 0.850018,19.299988q2.259979,11.26001 11.069992,20.340088q12.12001,12.5 29.299976,12.51001q115.77002,0.040039 231.540024,0.01001l0,0.000061zm99.250031,-128.909973l-99.559998,0a4.3,4.3 0 0 0 -4.300018,4.299988l0,0.73999a13.37,12.64 0 0 0 13.369995,12.640015l81.419922,0a13.37,12.64 0 0 0 13.370148,-12.640015l0,-0.73999a4.3,4.3 0 0 0 -4.300049,-4.299988zm-95.300049,52.049988q0.76004,1.580017 1.900024,2.950012c20.460022,24.559998 71.169983,24.009949 89.309998,-2.640015a0.66,0.66 0 0 0 -0.480042,-1.030029q-3.25,-0.329956 -6.719971,-0.299988q-41.549957,0.340027 -83.269958,-0.130005q-1.300018,-0.01001 -0.740051,1.150024z" id="svg_64"/>
  <path fill="#ffffff" d="m476.960083,308.840973q-2.069885,1.379974 -4.72998,1.549988q-0.5,0.029999 -0.929932,0.279999q-1.940063,1.100006 -4.109985,1.019989q-0.460083,-0.019989 -0.840088,0.25q-0.789917,0.560028 -1.659912,0.170013q-0.570007,-0.25 -1.109985,0.029999q-0.720093,0.369995 -1.480103,0.459991a0.99,0.98 86.0999984741211 0 0 -0.859985,0.990021q0.02002,1.129974 -0.570007,1.940002q-0.609985,0.849976 -1,1.97998q-5.779968,16.470001 -13.679932,29.110016q-14.159973,22.679993 -38.800018,37.22998q-0.379974,0.220032 -0.78006,0.049988q-0.630005,-0.269958 -0.679993,-1.109985q11.090088,-7.159973 19.23999,-17.460022c7.590088,-9.579956 14.26001,-24.109985 12.510071,-36.689972q-1.450073,-10.480011 -10.870117,-14.079987q-3.019958,-1.150024 -5.75,-0.650024q-10.899963,1.970001 -13.869873,11.690002q-0.570068,1.850006 -1.630127,8.320007q-2.959961,0.48999 -3.5,1.980011q-0.189941,0.539978 -0.599976,0.949982q-8.429932,8.160034 -20.179932,11.580017q-26.110077,7.610016 -51.760132,-1.26001c-4.579956,-1.590027 -9.159912,-4.590027 -13.659912,-6.969971q-2.080078,-1.100037 -5.630066,-4.26004c-0.659973,-0.599976 -1.580017,-1.009979 -2.330017,-1.579987a0.28,0.28 0 0 0 -0.389954,0.040009q-0.189941,0.209991 -0.039978,0.470001a0.19,0.19 0 0 1 -0.160034,0.289978q-0.309937,0.02002 -0.919891,-0.349976q-0.880096,-4.320007 -2.139984,-8.640015q-2.52002,-8.700012 -10.600067,-11.619995q-3.139984,-1.140015 -5.98999,-0.519989c-15.640015,3.389984 -15.610046,18.939972 -11.469971,31.329987c3.859985,11.539978 10.879944,21.140015 19.829956,29.650024l-0.029968,0.859985q-0.02002,0.539978 -0.559998,0.459961q-0.810028,-0.119995 -1.380005,-0.629944c-9.400024,-8.280029 -19.219971,-18.75 -24.769989,-30.070007q-9.310028,-19.01001 -11.360016,-37.210022q-3.27002,-29 9.120026,-56.250015q2.669952,-5.86998 6.790009,-12.299957q4.969971,-7.730011 9.329956,-12.540024c8.830017,-9.719986 18.859955,-18.479996 30.590057,-25q5.409912,-3.01001 11.809937,-6.37001q1.890015,-0.990005 3.75,-1.52002q1.910034,-0.549988 3.660034,-1.469986q3.200012,-1.689972 6.699951,-2.929993a0.56,0.56 0 0 0 0.220093,-0.909988l-5.390015,-5.789993c61.98999,-12.320007 124.189941,29.639984 139.400024,89.519989q4.109985,16.190002 3.259888,35.980011z" id="svg_76"/>
  <path stroke="#a4e2ff" d="m133.981216,474.306061a11.78,10.32921 0 0 0 -12.104286,-10.036682l-3.438721,0.084167a11.78,10.32921 0 0 0 -11.446503,10.613586l0.127335,3.996887a11.78,10.32921 0 0 0 12.104279,10.036713l3.438721,-0.084167a11.78,10.32921 0 0 0 11.446495,-10.613586l-0.127319,-3.996918m471.436996,0.31073a12.14,10.64487 0 0 0 -12.432983,-10.381622l-2.919189,0.062622a12.14,10.64487 0 0 0 -11.839722,10.901764l0.095703,3.436188a12.14,10.64487 0 0 0 12.432983,10.381653l2.919189,-0.062622a12.14,10.64487 0 0 0 11.839722,-10.901794l-0.095703,-3.436188" id="svg_62"/>
  <rect fill="#ffffff" x="-167.60988" y="-190.12905" transform="rotate(-1.2 13886.6 -24479.2)" width="23.7" height="30.48" rx="10.78" id="svg_73"/>
  <path fill="#ffffff" d="m302.670135,129.830948c0.609985,3.98999 -0.420013,8.309998 -3.820007,10.690002c-5.259979,3.690002 -13.419983,3.809998 -17.849976,-1.550018q-6.140015,-7.409973 -4.330017,-16.03997c1.549988,-7.450012 8.25,-9.990021 14.980011,-8.570015c6.069977,1.290024 10.209991,10.140015 11.019989,15.469986l0,0.000031l0,-0.000015zm128.410034,9.309998c-4.25,4.269989 -11.280029,5.209991 -16.340027,2.230011q-7.619995,-4.480011 -5.26001,-14.420006c1.400024,-5.889984 5.499969,-12.359993 11.940002,-12.840004c11.330017,-0.839996 14.75,7.459991 13.330017,17.029999q-0.75,5.070007 -3.669983,8zm-204.810043,7.290009c6.630005,-0.279999 11.519989,5.310013 15.440002,9.959991q4,4.73999 3.639984,9.37001q-0.959991,5.949997 -4.97998,8.490021c-7.720001,4.87001 -12.980011,0.110001 -18.589996,-4.690002q-3.180023,-2.720001 -4.410004,-5.02002c-4.149994,-7.779999 0.070007,-16.449982 8.899994,-18.110001zm268.86998,7.009979c4.279999,9.970001 -2.360077,15.01001 -9.600037,20.310043c-9.430023,6.889969 -20,-1.12999 -19.140015,-11.650009c1.490051,-5.360001 7.400024,-9.810013 11.600098,-12.98999q3.299988,-2.48999 6.599976,-2.570023q6.830017,-0.159988 10.540039,6.899979l-0.000031,0l-0.000031,0z" id="svg_74"/>
  <path fill="#aad4ff" d="m334.30014,183.340958l5.390015,5.789978a0.56,0.56 0 0 1 -0.220032,0.910004q-3.499969,1.240021 -6.700012,2.929993q-1.75,0.920013 -3.660004,1.470001q-1.859985,0.529999 -3.749969,1.52002q-6.400024,3.359985 -11.809998,6.369995c-11.730042,6.519989 -21.76001,15.279999 -30.590027,25q-4.359985,4.809998 -9.329956,12.540009q-4.120056,6.429993 -6.790009,12.299988q-12.39006,27.250015 -9.120026,56.250015q2.049988,18.200012 11.360016,37.210022c5.550018,11.320007 15.369965,21.789978 24.769989,30.070007q0.570007,0.509949 1.380005,0.629944q0.539978,0.080017 0.559998,-0.459961l0.029968,-0.859985q3.090057,2.599976 6.240051,5.009949c11.100006,8.51001 24.009949,13.370056 37.869995,15.930054q0.639954,0.109985 0.629944,0.759949q-0.080017,19.119995 0.110046,39.670044q0.039978,3.690002 -0.220032,7.109985q-0.049988,0.580017 -0.630005,0.580017l-33.299988,0.049988q-0.559998,0 -0.559998,-0.559998q0.019989,-8.119995 0.030029,-15.369995c0.019989,-9.869995 -6.730042,-18.23999 -14.120056,-23.820007q-7.129944,-5.400024 -14.449982,-11.380005c-24.160019,-19.76001 -39.340027,-46.27002 -42.679993,-77.450012c-4.049988,-37.820007 8.720001,-72.919998 35.820007,-99.110031q26.959961,-26.059998 63.73999,-33.089996l0,0.000015l0.000031,0.000015z" id="svg_77"/>
  <path fill="#71c4f6" d="m164.365524,333.744049a25.57,25.57 0 0 1 -25.525391,25.614594l-36.939911,0.064514a25.57,25.57 0 0 1 -25.614594,-25.525391l-0.050896,-29.139893a25.57,25.57 0 0 1 25.525375,-25.614624l36.939919,-0.064484a25.57,25.57 0 0 1 25.614594,25.525391l0.050903,29.139893zm-30.373199,-17.529999a11.77,11.77 0 0 0 -12.252518,-11.266785l-3.616791,0.151611a11.77,11.77 0 0 0 -11.266815,12.252594l0.171722,4.096405a11.77,11.77 0 0 0 12.252487,11.266785l3.616791,-0.151611a11.77,11.77 0 0 0 11.266785,-12.252594l-0.171692,-4.096405l0.000031,0zm502.087814,17.646912a25.48,25.48 0 0 1 -25.480042,25.47998l-37.5,0a25.48,25.48 0 0 1 -25.47998,-25.47998l0,-29.26001a25.48,25.48 0 0 1 25.47998,-25.47998l37.5,0a25.48,25.48 0 0 1 25.480042,25.47998l0,29.26001zm-30.496643,-17.428192a12.15,12.15 0 0 0 -12.586975,-11.696594l-2.95813,0.108398a12.15,12.15 0 0 0 -11.696594,12.587097l0.134888,3.67749a12.15,12.15 0 0 0 12.587036,11.696594l2.958069,-0.108398a12.15,12.15 0 0 0 11.696594,-12.587097l-0.134888,-3.67749z" id="svg_80"/>
  <rect fill="#ffffff" x="-169.38988" y="-188.87905" transform="rotate(-2.1 13685.5 -20328.3)" width="27.26" height="27.98" rx="12.15" id="svg_81"/>
  <rect fill="#ffffff" x="-169.33988" y="-188.70905" transform="rotate(-2.4 11767.3 -6522.53)" width="27.16" height="27.64" rx="11.77" id="svg_82"/>
  <path fill="#aad4ff" d="m476.960114,308.840973q-1.089966,24.669983 -11.230011,44.550018c-9.069977,17.759949 -23.549957,33.959961 -41.089935,46.47998q-9.54007,6.809998 -15.070007,14.709961q-3.809998,5.450012 -4,13.850037q-0.170044,7.279968 -0.170044,15.070007a0.63,0.63 0 0 1 -0.629944,0.630005l-32.590027,0a0.58,0.58 0 0 1 -0.580017,-0.580017l-0.029968,-47.450012q0,-0.289978 0.289978,-0.330017q18.419983,-2.769958 33.869965,-12.97998q0.049988,0.840027 0.679993,1.109985q0.399994,0.170044 0.78006,-0.049988q24.640015,-14.549988 38.799988,-37.22998q7.900024,-12.640015 13.679993,-29.110016q0.390015,-1.130005 1,-1.97998q0.590027,-0.810028 0.570007,-1.940002a0.99,0.98 86.0999984741211 0 1 0.859955,-0.990021q0.76004,-0.089996 1.480072,-0.459991q0.539978,-0.279999 1.109985,-0.029999q0.869995,0.390015 1.659973,-0.170013q0.379974,-0.269989 0.840027,-0.25q2.169983,0.080017 4.109985,-1.019989q0.429962,-0.25 0.929993,-0.279999q2.660034,-0.170013 4.72998,-1.549988zm-71.599976,25.079987q-2.309998,9.22998 -9.450012,16.380005q-7.919983,7.929993 -17.690002,11.710022c-23.029968,8.899963 -56,3.009949 -69.27002,-20.369995q-1.819946,-3.200012 -2.759949,-6.830017q0.609985,0.369995 0.919952,0.349976a0.19,0.19 0 0 0 0.160034,-0.289978q-0.149994,-0.26001 0.039978,-0.470001a0.28,0.28 0 0 1 0.389984,-0.040009c0.75,0.570007 1.669983,0.980011 2.330017,1.579987q3.549988,3.160004 5.630035,4.26004c4.5,2.379944 9.079987,5.379944 13.659943,6.969971q25.649994,8.869995 51.760071,1.26001q11.75,-3.419983 20.179993,-11.580017q0.409943,-0.410004 0.599976,-0.949982q0.539978,-1.490021 3.5,-1.980011z" id="svg_83"/>
  <ellipse fill="#3f6a8c" cx="-155.75988" cy="-174.88905" transform="rotate(-10.8 2945.03 -1699.78)" rx="17.15" ry="15.13" id="svg_84"/>
  <ellipse fill="#3f6a8c" cx="-155.75988" cy="-174.88905" transform="rotate(8.5 -3542.32 4691.64)" rx="17.08" ry="15.16" id="svg_85"/>
  <path fill="#aad4ff" d="m236.330124,397.191742c10.139999,11.679993 20.429977,20.349976 32.249985,30.039978q2.960022,2.419983 5.27002,5.119995a3.96,3.94 -65.19999694824219 0 1 0.950012,2.599976q-0.049988,11.700012 0.040009,22.200012q0.009979,1.27002 -0.839996,2.200012q-8.370056,9.25 -5.650024,21.25c1.47998,6.539978 5.899994,12.049988 11.720001,15.130005a0.27,0.27 0 0 1 0.050018,0.440002c-11.309998,10.080017 -9.27002,25.849945 -3.149994,38.22995c11.839996,23.940002 33.699982,40.850037 60.089996,45.609985c19.799988,3.570007 41.359985,1.670044 59.659943,-7.429993c20.410065,-10.139954 36.26001,-27.639954 41.660065,-49.630005c2.409973,-9.789978 0.559998,-20.499969 -7.340027,-26.669922q-0.48999,-0.379974 0.069977,-0.649963c14.800018,-7.26001 17.420013,-24.959991 6.190033,-37.01001a2.94,2.92 24 0 1 -0.799988,-2.059998q0.119995,-11.070038 0.139954,-21.720032q0,-1.649933 1.029999,-2.75c2,-2.139984 4.370026,-4.279968 6.689972,-6.100006q14.609955,-11.48999 27.380005,-24.899994q-0.039978,0.830048 0.650024,0.840057a0.69,0.69 0 0 1 0.669983,0.779968q-0.630005,4.820007 -0.869995,9.309998q-0.25,4.640015 -0.98999,9.210022q-3.130005,19.419983 -4.619995,30.969971q-1.560028,12.180023 -1.920044,30.530029q-0.440002,22.460022 -0.820007,43.379913q-0.269958,14.75 -5.509949,28.429993q-1.080048,2.840027 -2.580017,5.409973c-1.910034,3.280029 -3.330078,6.670044 -5.600098,9.869995c-1.429962,2.01001 -2.620056,3.990051 -4.330017,5.830017q-4.149963,4.470032 -7.869995,7.799988q-12.380005,11.050049 -27.51004,16.52002q-4.48996,1.630005 -8.919952,2.970032q-0.540039,0.159973 -0.720062,0.699951q-0.309967,0.929993 -0.099976,1.950012l-94.420013,0.070007l8.030029,-0.159973q0.459961,-0.01001 0.570038,-0.460022q0.03006,-0.119995 -0.040039,-0.25q-0.169952,-0.340027 -0.529999,-0.450012q-6.610046,-2 -13.240051,-4.049988c-7.659851,-2.369995 -14.539978,-6.780029 -21.189911,-11.440002q-7.439972,-5.209961 -12.949951,-11.689941c-3.450043,-4.060059 -7.090088,-8.540039 -9.550049,-13.300049q-5.689987,-10.979919 -8.120041,-21.530029c-1.470001,-6.429932 -1.75,-13.679932 -1.659973,-20.179932q0.159973,-12.229889 -0.659973,-23.959869c-0.100037,-1.400024 0.259979,-2.700012 0.190002,-4.130005q-0.159988,-3.210022 -0.080048,-6.410034c0.090027,-4.269958 -0.579987,-8.309998 -0.399963,-12.47998q0.159973,-3.880005 -0.269989,-7.539978c-0.400009,-3.420044 -0.310059,-6.780029 -0.780029,-10.300049q-0.790009,-5.849976 -1.540009,-12.369995q-0.389984,-3.370056 -1.029999,-6.649963c-0.570007,-2.960022 -0.720001,-5.960022 -1.159973,-8.940002q-1.51001,-10.200012 -1.950012,-14.27002q-0.649979,-5.919983 -2.340027,-10.880005q-0.290009,-0.849976 -1.109985,-2.029968q-0.660004,-0.950012 -1.130005,-2.030029q-0.52002,-1.169983 0.98999,-2.969971l0.000061,-0.000061l0.000046,-0.000031l0.000046,-0.000031z" id="svg_86"/>
  <path fill="#71c4f6" d="m164.297836,465.444458a25.389999,25.389999 0 0 1 -25.478516,25.301208l-37.219803,-0.129883a25.389999,25.389999 0 0 1 -25.301208,-25.478516l0.104103,-29.819824a25.389999,25.389999 0 0 1 25.478516,-25.301208l37.219795,0.129944a25.389999,25.389999 0 0 1 25.301224,25.478455l-0.104111,29.819824zm-30.310989,-17.829895a11.71,11.71 0 0 0 -12.032417,-11.378479l-3.598602,0.100464a11.71,11.71 0 0 0 -11.378479,12.03241l0.116089,4.158386a11.71,11.71 0 0 0 12.03241,11.37854l3.598602,-0.100525a11.71,11.71 0 0 0 11.378487,-12.03241l-0.116089,-4.158386zm502.098785,17.777222a25,25 0 0 1 -24.824829,25.17395l-38.459106,0.268555a25,25 0 0 1 -25.173889,-24.824951l-0.213196,-30.539185a25,25 0 0 1 24.824829,-25.174011l38.459045,-0.268494a25,25 0 0 1 25.17395,24.82489l0.213196,30.539246zm-30.697937,-17.621521a11.85,11.85 0 0 0 -12.135986,-11.557007l-3.419006,0.083618a11.85,11.85 0 0 0 -11.556885,12.135986l0.09668,3.958801a11.85,11.85 0 0 0 12.135986,11.557007l3.419006,-0.083618a11.85,11.85 0 0 0 11.556946,-12.135986l-0.096741,-3.958801z" id="svg_87"/>
  <path fill="#3f6a8c" d="m234.92012,437.860962c-0.690002,7.890015 -9.160004,15.570007 -15.970001,17.289978q-4.779999,1.200012 -9.899994,-1.509949c-8.070007,-4.27002 -9.73999,-14.570007 -3.820007,-21.330017c3.950012,-4.51001 11.610016,-11.049988 17.820007,-10.140015c7.910004,1.140015 12.559998,7.909973 11.87001,15.690002l-0.000015,0zm245.289993,8.27002c-6.279968,-8.190002 -4.309998,-19.76001 5.980042,-23.220032q6.01001,-2.019958 12,2.410034c5.919952,4.380005 12.599976,10.299988 11.409973,18.169983c-0.809998,5.419983 -5.209961,9.809998 -10.359985,11.469971c-7.650024,2.480042 -14.610046,-3.059998 -19.030029,-8.829956z" id="svg_88"/>
  <rect fill="#ffffff" x="-169.26988" y="-188.67905" transform="rotate(-1.6 22360.7 -9756.03)" width="27.02" height="27.58" rx="11.71" id="svg_89"/>
  <rect fill="#ffffff" x="-169.31988" y="-188.71905" transform="rotate(-1.4 25794 -30458.5)" width="27.12" height="27.66" rx="11.85" id="svg_90"/>
  <path fill="#ffffff" d="m405.530121,477.010986a4.3,4.3 0 0 1 4.300049,4.299988l0,0.73999a13.37,12.64 0 0 1 -13.370087,12.640015l-81.419952,0a13.37,12.64 0 0 1 -13.369995,-12.640015l0,-0.73999a4.3,4.3 0 0 1 4.300018,-4.299988l99.559967,0z" id="svg_91"/>
  <path fill="#39b5ff" d="m164.406418,558.864075a25.51,25.51 0 0 1 -25.465393,25.554504l-37.019997,0.064575a25.51,25.51 0 0 1 -25.554405,-25.465393l-0.052803,-30.239929a25.51,25.51 0 0 1 25.465393,-25.554443l37.020027,-0.064636a25.51,25.51 0 0 1 25.554382,25.465393l0.052795,30.239929zm-30.425201,-17.939209a11.78,11.78 0 0 0 -12.104286,-11.446411l-3.438721,0.096008a11.78,11.78 0 0 0 -11.446503,12.104309l0.127335,4.558289a11.78,11.78 0 0 0 12.104279,11.446411l3.438721,-0.096008a11.78,11.78 0 0 0 11.446495,-12.104309l-0.127319,-4.558289zm501.968918,18.726074c-0.059998,11.110046 -8.190002,20.820007 -18.190002,23.860046q-4.220032,1.279968 -19.52002,1.159973q-15.539978,-0.130005 -27.419983,-0.380005q-5.73999,-0.130005 -11.23999,-3.76001q-11.940002,-7.889954 -12.080017,-22.950012q-0.140015,-14.349976 0.049988,-28.119995c0.210022,-14.799988 10.099976,-25.669983 25.169983,-25.98999q21.369995,-0.459961 39.01001,-0.109985c11.549988,0.22998 20.5,6.710022 23.380005,17.76001q0.950012,3.640015 0.940002,9.279968q-0.029968,16.179993 -0.099976,29.25zm-30.531921,-18.371704a12.14,12.14 0 0 0 -12.432983,-11.839783l-2.919189,0.071411a12.14,12.14 0 0 0 -11.839722,12.432983l0.095703,3.918823a12.14,12.14 0 0 0 12.432983,11.839783l2.919189,-0.071411a12.14,12.14 0 0 0 11.839722,-12.432983l-0.095703,-3.918823z" id="svg_92"/>
  <path fill="#ffffff" d="m310.230133,529.060974q-0.559998,-1.160034 0.740021,-1.150024q41.720001,0.470032 83.269989,0.130005q3.469971,-0.029968 6.719971,0.299988a0.66,0.66 0 0 1 0.480042,1.030029c-18.140015,26.649963 -68.850006,27.200012 -89.309998,2.640015q-1.140015,-1.369995 -1.900024,-2.950012z" id="svg_93"/>
  <rect fill="#ffffff" x="-169.25988" y="-188.94905" transform="rotate(-1.6 25709 -9709.63)" width="27" height="28.12" rx="11.78" id="svg_94"/>
  <rect fill="#ffffff" x="-169.35988" y="-188.98905" transform="rotate(-1.4 29620 -30411.3)" width="27.2" height="28.2" rx="12.14" id="svg_95"/>
  <line fill="none" stroke="null" x1="43.62098" y1="93.66443" x2="75.29798" y2="172.54639" id="svg_5"/>
  <line fill="none" stroke="null" x1="64.11786" y1="155.77621" x2="249.83208" y2="124.09921" id="svg_6"/>
  <line fill="none" stroke="null" x1="173.4346" y1="136.52156" x2="312.56498" y2="66.33525" id="svg_7"/>
 </g>
</svg>